<svg viewBox="0 0 113.39 24.34" xmlns="http://www.w3.org/2000/svg">
    <defs>
        <style>
        .cls-1 {
            fill: #69bea5;
        }

        .cls-2 {
            fill: #064066;
        }

        .cls-3 {
            fill: #91b5d0;
        }

        .cls-4 {
            fill: #90b4ce;
        }
        </style>
    </defs>
    <g>
        <g id="Ebene_1">
            <g>
                <path class="cls-4" d="M9.67,10.59H3.38l-1.19,2.81H0L5.5.94h2.15l5.45,12.46h-2.24l-1.19-2.81ZM8.86,8.72l-2.35-5.54-2.35,5.54h4.7Z"/>
                <path class="cls-4" d="M23.2.2v13.21h-2.05v-1.62c-.68,1.1-1.82,1.71-3.33,1.71-2.72,0-4.54-1.98-4.54-4.86s1.83-4.79,4.5-4.79c1.53,0,2.67.62,3.36,1.73V.2h2.05ZM21.15,8.7c0-1.83-1.19-3.12-2.9-3.12s-2.9,1.3-2.92,3.12c.02,1.8,1.19,3.08,2.92,3.08s2.9-1.28,2.9-3.08Z"/>
                <path class="cls-4" d="M42.14,7.51v5.89h-2.05v-5.32c0-1.44-.85-2.31-2.24-2.31-1.62.05-2.6,1.3-2.6,2.95v4.68h-2.05v-5.32c0-1.44-.84-2.31-2.23-2.31-1.64.05-2.63,1.3-2.63,2.95v4.68h-2.03V3.93h2.03v1.83c.66-1.34,1.87-1.9,3.44-1.9,1.69,0,2.85.84,3.29,2.28.61-1.58,1.87-2.28,3.6-2.28,2.17,0,3.47,1.39,3.47,3.65Z"/>
                <path class="cls-4" d="M47.09,1.23c0,.69-.52,1.21-1.19,1.21s-1.19-.52-1.19-1.21S45.22,0,45.9,0s1.19.52,1.19,1.23ZM46.91,3.93v9.47h-2.03V3.93h2.03Z"/>
                <path class="cls-4" d="M55.29,12.8c-.75.44-1.53.69-2.33.69-1.42,0-2.65-.82-2.65-2.76v-4.91h-1.34v-1.53h1.34V1.69h2.03v2.6h2.79v1.53h-2.79v4.54c0,.98.37,1.28,1.01,1.28.43,0,.87-.14,1.42-.41l.52,1.57Z"/>
                <path class="cls-2" d="M62.86,2.76c-2.49,0-4.45,1.92-4.45,4.38s1.96,4.4,4.45,4.4c1.25,0,2.53-.57,3.47-1.48l1.25,1.39c-1.26,1.25-3.06,2.05-4.82,2.05-3.65,0-6.48-2.76-6.48-6.34s2.87-6.27,6.55-6.27c1.76,0,3.52.73,4.74,1.92l-1.23,1.53c-.91-.98-2.21-1.58-3.47-1.58Z"/>
                <path class="cls-2" d="M78.76,7.51v5.89h-2.05v-5.32c0-1.42-.85-2.3-2.28-2.3-1.69.02-2.71,1.28-2.71,2.95v4.66h-2.05V.2h2.05v5.59c.68-1.34,1.89-1.92,3.51-1.92,2.21,0,3.52,1.39,3.52,3.65Z"/>
                <path class="cls-2" d="M89.83,9.45h-7.16c.32,1.46,1.44,2.37,2.94,2.37,1.03,0,1.98-.39,2.67-1.1l1.09,1.16c-.93,1.01-2.28,1.6-3.92,1.6-2.92,0-4.84-1.94-4.84-4.79s1.98-4.81,4.79-4.82c3.33,0,4.68,2.17,4.43,5.59ZM88.05,7.96c-.07-1.53-1.09-2.46-2.63-2.46s-2.56.94-2.78,2.46h5.41Z"/>
                <path class="cls-2" d="M95.94,5.66c-1.64,0-2.81,1.23-2.81,3.03s1.17,3.03,2.81,3.03c1.19,0,2.15-.39,2.79-1.14l1.14,1.14c-.85,1.12-2.23,1.76-4.02,1.76-2.81,0-4.77-1.94-4.77-4.79s1.96-4.82,4.77-4.82c1.71,0,3.04.55,3.92,1.55l-1.12,1.32c-.66-.68-1.57-1.09-2.71-1.07Z"/>
            </g>
            <g>
                <path class="cls-3" d="M58.65,20.16c.21.13.37.32.49.56.12.24.17.53.17.85s-.06.61-.17.86c-.12.25-.28.44-.49.57-.21.14-.45.21-.73.21-.24,0-.46-.05-.64-.16-.18-.11-.32-.26-.41-.46v.35c0,.08-.02.14-.07.19-.04.05-.11.07-.19.07s-.15-.02-.19-.07c-.05-.05-.07-.11-.07-.19v-4.08c0-.07.02-.13.07-.18.05-.05.11-.07.19-.07s.14.02.19.07c.05.05.07.11.07.18v1.72c.09-.2.23-.35.41-.46.18-.11.39-.16.64-.16.27,0,.52.07.73.2ZM58.53,22.46c.17-.21.25-.51.25-.89s-.08-.66-.25-.87c-.17-.21-.4-.31-.71-.31s-.54.1-.7.31c-.16.21-.25.5-.25.88s.08.67.25.88c.16.21.4.31.7.31s.54-.11.71-.32Z"/>
                <path class="cls-3" d="M62.53,19.98c.06,0,.12.02.17.06s.08.1.08.16c0,.04,0,.07-.03.1l-1.8,3.89s-.05.08-.09.11c-.04.03-.08.04-.13.04-.06,0-.12-.02-.17-.06-.05-.04-.07-.09-.07-.16,0-.03,0-.07.03-.1l.45-.97-1.27-2.75s-.03-.06-.03-.1c0-.06.03-.12.09-.17.06-.05.12-.07.19-.07.04,0,.08.01.13.04.04.03.07.06.09.11l1.07,2.41,1.07-2.39c.05-.1.12-.15.22-.15Z"/>
                <path class="cls-3" d="M65.89,22.94c-.31-.19-.55-.45-.72-.8-.17-.35-.25-.76-.25-1.24s.08-.88.25-1.23c.17-.35.41-.62.72-.8.31-.19.68-.28,1.11-.28.29,0,.56.05.81.14.25.09.48.22.66.39.07.06.1.14.1.22,0,.06-.02.11-.05.16-.03.05-.07.07-.12.07-.05,0-.11-.02-.19-.07-.22-.17-.42-.29-.59-.36-.18-.07-.38-.1-.61-.1-.5,0-.88.16-1.15.48-.27.32-.4.78-.4,1.38s.13,1.06.4,1.38c.27.32.65.48,1.15.48.23,0,.43-.03.61-.1s.38-.19.6-.36c.07-.05.13-.07.19-.07.05,0,.09.02.12.06.03.04.05.1.05.16,0,.09-.03.16-.1.22-.19.17-.41.3-.66.39s-.53.14-.81.14c-.43,0-.8-.09-1.11-.28Z"/>
                <path class="cls-3" d="M70.16,22.93c-.31-.19-.55-.46-.72-.8-.17-.35-.25-.75-.25-1.23s.08-.89.25-1.24.4-.62.71-.8c.31-.19.68-.28,1.1-.28s.79.09,1.1.28c.31.19.55.45.71.8s.25.76.25,1.23-.08.88-.25,1.23c-.17.35-.41.62-.72.81-.31.19-.67.28-1.09.28s-.78-.09-1.09-.28ZM72.37,22.28c.27-.32.4-.78.4-1.38s-.13-1.06-.4-1.38c-.27-.32-.64-.48-1.12-.48s-.85.16-1.12.48c-.27.32-.4.78-.4,1.38s.13,1.05.4,1.38.64.49,1.12.49.85-.16,1.12-.48Z"/>
                <path class="cls-3" d="M78.47,18.68s.07.11.07.2v4.06c0,.08-.02.14-.06.19-.04.05-.1.07-.18.07s-.13-.02-.17-.07c-.04-.05-.06-.11-.06-.19v-3.28l-1.39,2.67c-.06.12-.15.19-.26.19s-.2-.06-.26-.19l-1.4-2.64v3.25c0,.08-.02.14-.06.19-.04.05-.1.07-.18.07s-.14-.02-.18-.07c-.04-.05-.06-.11-.06-.19v-4.06c0-.08.02-.15.07-.2.05-.05.11-.07.19-.07.11,0,.19.06.26.19l1.63,3.13,1.61-3.13c.03-.07.07-.12.11-.14.04-.03.09-.04.14-.04.08,0,.14.02.19.07Z"/>
                <path class="cls-3" d="M79.73,23.12s-.07-.11-.07-.2v-4.03c0-.08.02-.14.07-.19.05-.05.11-.07.2-.07h1.52c.47,0,.84.12,1.11.35.26.23.39.56.39.98s-.13.75-.4.99c-.27.24-.63.35-1.1.35h-1.26v1.62c0,.08-.02.15-.07.2-.05.05-.11.07-.19.07s-.15-.02-.19-.07ZM81.39,20.87c.69,0,1.03-.3,1.03-.9s-.34-.89-1.03-.89h-1.21v1.8h1.21Z"/>
                <path class="cls-3" d="M84.55,22.93c-.31-.19-.55-.46-.72-.8-.17-.35-.25-.75-.25-1.23s.08-.89.25-1.24.4-.62.71-.8c.31-.19.68-.28,1.1-.28s.79.09,1.1.28c.31.19.55.45.71.8s.25.76.25,1.23-.08.88-.25,1.23c-.17.35-.41.62-.72.81-.31.19-.67.28-1.09.28s-.78-.09-1.09-.28ZM86.76,22.28c.27-.32.4-.78.4-1.38s-.13-1.06-.4-1.38c-.27-.32-.64-.48-1.12-.48s-.85.16-1.12.48c-.27.32-.4.78-.4,1.38s.13,1.05.4,1.38c.27.33.64.49,1.12.49s.85-.16,1.12-.48Z"/>
                <path class="cls-3" d="M89.08,22.75c-.3-.31-.46-.76-.46-1.36v-2.52c0-.08.02-.15.07-.2s.11-.07.19-.07c.08,0,.14.02.19.07.05.05.07.11.07.2v2.56c0,.44.11.77.32.99.22.22.53.33.95.33s.74-.11.95-.33.32-.55.32-.99v-2.56c0-.08.02-.15.07-.2s.11-.07.19-.07c.08,0,.15.02.19.07.05.05.07.11.07.2v2.52c0,.59-.15,1.05-.46,1.36s-.75.47-1.34.47-1.04-.15-1.34-.46Z"/>
                <path class="cls-3" d="M96.86,18.68s.06.11.06.2v4.05c0,.08-.02.15-.07.2-.05.05-.11.07-.19.07s-.15-.04-.21-.11l-2.66-3.56v3.4c0,.08-.02.15-.07.2-.05.05-.11.07-.18.07s-.14-.02-.18-.07c-.04-.05-.06-.11-.06-.2v-4.05c0-.08.02-.15.07-.2s.11-.07.19-.07c.09,0,.16.04.22.11l2.66,3.56v-3.4c0-.08.02-.15.07-.2.04-.05.11-.07.18-.07s.14.02.18.07Z"/>
                <path class="cls-3" d="M98.11,23.09s-.07-.11-.07-.19v-4.01c0-.08.02-.14.07-.19.05-.05.11-.07.2-.07h1.25c.72,0,1.28.2,1.68.59.4.39.59.95.59,1.67s-.2,1.28-.6,1.67c-.4.39-.96.59-1.67.59h-1.25c-.08,0-.15-.02-.2-.07ZM99.53,22.71c1.17,0,1.76-.61,1.76-1.82s-.59-1.81-1.76-1.81h-.96v3.63h.96Z"/>
                <path class="cls-3" d="M102.86,23.09s-.07-.11-.07-.19v-4.01c0-.08.02-.14.07-.19.05-.05.11-.07.2-.07h2.4c.08,0,.14.02.18.06.04.04.06.09.06.16s-.02.12-.06.16c-.04.04-.1.06-.18.06h-2.15v1.57h2.02c.08,0,.14.02.18.06s.06.09.06.16-.02.12-.06.16-.1.06-.18.06h-2.02v1.64h2.15c.08,0,.14.02.18.05.04.04.06.09.06.16,0,.07-.02.12-.06.16-.04.04-.1.06-.18.06h-2.4c-.08,0-.15-.02-.2-.07Z"/>
                <path class="cls-3" d="M110.01,22.98c0,.06-.02.12-.07.16-.05.04-.11.06-.17.06-.1,0-.18-.04-.23-.13l-.86-1.36c-.11-.18-.23-.3-.35-.36-.12-.07-.28-.1-.49-.1h-.81v1.67c0,.08-.02.15-.07.2-.05.05-.11.07-.19.07-.08,0-.15-.02-.19-.07-.05-.05-.07-.11-.07-.2v-4.03c0-.08.02-.14.07-.19.05-.05.11-.07.2-.07h1.59c.49,0,.87.11,1.13.33s.39.54.39.96c0,.36-.1.65-.31.87-.21.22-.5.35-.89.4.11.03.2.09.29.17.09.08.17.18.26.32l.73,1.16s.05.1.05.15ZM108.33,20.81c.35,0,.61-.07.79-.22.17-.15.26-.37.26-.66s-.09-.51-.26-.65c-.17-.14-.43-.21-.79-.21h-1.3v1.74h1.3Z"/>
            </g>
            <path class="cls-3" d="M112.62,18.83c.19.11.33.25.44.44.11.19.16.39.16.62s-.05.43-.16.62c-.11.19-.25.33-.44.44-.19.11-.39.16-.62.16s-.43-.05-.62-.16c-.19-.11-.33-.25-.44-.44-.11-.19-.16-.39-.16-.62s.05-.43.16-.62c.11-.19.25-.33.44-.44.19-.11.39-.16.62-.16s.43.05.62.16ZM112.54,20.81c.16-.09.29-.22.38-.39.09-.16.14-.34.14-.54s-.05-.38-.14-.54c-.09-.16-.22-.29-.38-.38-.16-.09-.34-.14-.54-.14s-.38.05-.54.14c-.16.09-.29.22-.38.38-.09.16-.14.34-.14.54s.05.38.14.54c.09.16.22.29.38.39.16.09.34.14.54.14s.38-.05.54-.14ZM112.6,20.46s.03.05.03.07c0,.03-.01.05-.04.07s-.05.03-.09.03c-.05,0-.09-.02-.12-.07l-.27-.41s-.06-.07-.09-.09c-.03-.02-.07-.03-.12-.03h-.17v.47s-.01.07-.03.09c-.02.02-.05.03-.09.03s-.07-.01-.09-.03-.03-.05-.03-.09v-1.21s.01-.07.03-.09c.02-.02.05-.03.09-.03h.48c.16,0,.28.04.37.11.09.07.13.18.13.32,0,.11-.03.21-.1.28s-.16.12-.27.14c.04,0,.07.03.1.05s.06.06.09.1l.19.3ZM112.27,19.78s.07-.1.07-.18-.02-.14-.07-.18c-.05-.04-.12-.05-.21-.05h-.32v.46h.32c.09,0,.16-.02.21-.05Z"/>
            <polygon class="cls-2" points="110.94 13.4 107.11 7.4 105.39 8.5 108.51 13.4 110.94 13.4"/>
            <rect class="cls-2" x="102.1" y="9.22" width="2.04" height="4.18"/>
            <polygon class="cls-1" points="102.1 13.03 113.39 1.52 111.96 .15 104.15 8.18 104.14 3.88 102.1 3.88 102.1 13.03"/>
        </g>
    </g>
</svg>